<?xml version="1.0" standalone="no"?>
<!DOCTYPE svg PUBLIC "-//W3C//DTD SVG 20010904//EN"
 "http://www.w3.org/TR/2001/REC-SVG-20010904/DTD/svg10.dtd">
<svg version="1.0" xmlns="http://www.w3.org/2000/svg"
 width="512.000000pt" height="512.000000pt" viewBox="0 0 512.000000 512.000000"
 preserveAspectRatio="xMidYMid meet">

<g transform="translate(0.000000,512.000000) scale(0.100000,-0.100000)"
fill="#000000" stroke="none">
<path d="M2526 4949 c-74 -17 -163 -68 -220 -125 -88 -89 -110 -144 -168 -430
l-50 -249 -158 -160 c-197 -199 -205 -219 -109 -295 117 -92 299 -115 422 -53
16 8 32 13 37 11 20 -7 -62 -173 -165 -333 -195 -305 -467 -757 -535 -890
-127 -251 -162 -436 -125 -675 35 -232 149 -457 317 -622 l68 -67 0 -198 -1
-198 -119 -159 c-131 -174 -140 -197 -95 -241 28 -29 55 -31 115 -10 55 19
141 19 187 0 20 -8 55 -33 79 -55 58 -53 88 -53 151 1 26 23 62 48 80 55 42
18 130 18 180 0 46 -16 173 -15 216 3 40 16 131 14 174 -4 20 -8 55 -33 79
-55 58 -53 88 -53 151 1 26 23 62 48 80 55 43 18 130 18 183 -1 60 -21 87 -19
115 10 45 44 36 67 -95 241 l-119 159 0 175 0 175 60 45 c179 133 341 371 401
591 33 121 33 337 0 459 -36 134 -117 286 -289 546 -177 268 -230 366 -268
499 -47 163 -59 263 -59 485 0 171 5 238 28 400 25 171 28 215 23 355 -8 240
-40 331 -157 438 -114 106 -271 149 -414 116z m238 -183 c61 -30 110 -80 137
-141 43 -98 51 -317 19 -535 -74 -503 -37 -888 116 -1194 25 -50 115 -194 199
-321 231 -349 282 -464 292 -657 5 -88 2 -123 -16 -201 -37 -160 -128 -321
-251 -442 l-60 -59 0 72 0 72 -80 0 -80 0 0 -374 0 -374 60 -81 c33 -45 60
-85 60 -90 0 -5 -19 -11 -42 -15 -23 -4 -68 -21 -100 -38 l-58 -31 -57 30
c-32 17 -71 34 -87 37 l-29 7 87 88 86 88 0 337 0 336 -80 0 -80 0 0 -144 0
-144 -67 -13 c-105 -21 -301 -17 -402 9 -46 12 -85 22 -87 22 -2 0 -4 61 -4
135 l0 135 -80 0 -80 0 0 -336 0 -337 87 -88 c48 -50 80 -89 71 -89 -8 0 -48
-16 -87 -36 l-72 -36 -58 31 c-31 16 -76 33 -99 37 -23 4 -42 10 -42 15 0 5
27 45 60 90 l60 81 0 374 0 374 -79 0 -80 0 -3 -36 -3 -36 -48 65 c-130 178
-197 401 -184 611 10 157 64 304 193 523 107 183 367 607 454 743 130 201 192
338 215 477 5 33 16 49 51 78 67 55 204 263 204 310 0 16 -132 359 -166 432
-9 17 -29 37 -46 44 -27 11 -36 9 -99 -21 -38 -19 -71 -31 -74 -28 -12 12 8
79 39 129 82 137 247 185 390 115z m-271 -523 c62 -156 63 -140 -15 -255 -48
-71 -79 -95 -205 -157 -131 -66 -175 -76 -247 -61 -31 6 -56 15 -56 18 0 4 60
67 134 141 l134 134 27 138 28 139 31 0 c17 1 47 9 66 20 19 11 38 19 41 20 4
0 32 -62 62 -137z m2 -3439 c90 -6 249 6 290 22 12 5 15 -7 15 -73 l0 -78
-140 -140 -140 -140 -140 140 -140 140 0 86 0 86 78 -18 c42 -11 122 -22 177
-25z"/>
<path d="M2816 4538 c-22 -32 -20 -91 4 -119 l20 -24 20 24 c12 14 20 38 20
60 0 36 -22 81 -40 81 -5 0 -16 -10 -24 -22z"/>
<path d="M2237 2462 l-49 -57 34 -28 c54 -46 186 -104 277 -123 91 -18 198
-16 282 6 l47 12 -25 75 c-24 71 -27 75 -52 69 -63 -14 -161 -17 -216 -7 -63
12 -169 57 -212 91 -14 11 -28 20 -32 19 -3 0 -28 -26 -54 -57z"/>
<path d="M3291 2016 c-22 -27 -154 -79 -227 -89 -68 -10 -122 -6 -226 15 -16
4 -64 -130 -51 -143 15 -15 142 -39 206 -39 76 0 195 25 266 56 64 29 151 82
151 94 0 11 -91 120 -100 120 -4 0 -13 -6 -19 -14z"/>
<path d="M1837 1842 c-26 -26 -47 -53 -47 -60 0 -15 108 -96 170 -127 113 -57
264 -83 384 -66 37 5 70 11 72 13 2 2 -1 20 -6 39 -5 19 -13 52 -19 75 l-11
41 -57 -9 c-120 -19 -294 31 -385 111 -20 17 -40 31 -45 31 -5 0 -30 -22 -56
-48z"/>
</g>
</svg>
